ply
format ascii 1.0
comment Created by Blender 2.78 (sub 0) - www.blender.org, source file: ''
element vertex 154
property float x
property float y
property float z
property float nx
property float ny
property float nz
element face 46
property list uchar uint vertex_indices
end_header
0.833333 -0.833333 1.265520 0.000001 1.000000 0.000000
1.000000 -0.833333 1.265520 0.000001 1.000000 0.000000
1.000000 -0.833333 0.008571 0.000001 1.000000 0.000000
0.833333 -0.833333 0.008571 0.000001 1.000000 0.000000
-0.833334 -0.833334 1.373087 0.000000 -0.000000 1.000000
-1.000000 -0.833333 1.373087 0.000000 -0.000000 1.000000
-1.000000 -1.000000 1.373087 0.000000 -0.000000 1.000000
-0.833334 -1.000000 1.373087 0.000000 -0.000000 1.000000
1.000000 -0.833333 1.265520 1.000000 -0.000001 0.000004
1.000000 -0.833335 1.373087 1.000000 -0.000001 0.000004
0.999999 -1.000001 1.373087 1.000000 -0.000001 0.000004
1.000000 -1.000000 1.265520 1.000000 -0.000001 0.000004
-0.833334 -1.000000 1.265520 -0.000001 -1.000000 -0.000000
-0.833334 -1.000000 1.373087 -0.000001 -1.000000 -0.000000
-1.000000 -1.000000 1.373087 -0.000001 -1.000000 -0.000000
-1.000000 -1.000000 1.265520 -0.000001 -1.000000 -0.000000
-1.000000 0.833334 1.265520 -1.000000 0.000001 -0.000003
-1.000000 0.833333 1.373087 -1.000000 0.000001 -0.000003
-1.000000 1.000000 1.373087 -1.000000 0.000001 -0.000003
-1.000000 1.000000 1.265520 -1.000000 0.000001 -0.000003
-0.833333 1.000000 1.373087 0.000001 1.000000 0.000003
-0.833333 1.000000 1.265520 0.000001 1.000000 0.000003
-1.000000 1.000000 1.265520 0.000001 1.000000 0.000003
-1.000000 1.000000 1.373087 0.000001 1.000000 0.000003
-1.000000 -1.000000 1.265520 -1.000000 0.000001 -0.000003
-1.000000 -1.000000 1.373087 -1.000000 0.000001 -0.000003
-1.000000 -0.833333 1.373087 -1.000000 0.000001 -0.000003
-1.000000 -0.833333 1.265520 -1.000000 0.000001 -0.000003
-1.000000 -0.833333 1.265520 -1.000000 0.000000 -0.000004
-1.000000 -0.833333 1.373087 -1.000000 0.000000 -0.000004
-1.000000 0.833333 1.373087 -1.000000 0.000000 -0.000004
-1.000000 0.833334 1.265520 -1.000000 0.000000 -0.000004
1.000000 1.000000 1.265520 1.000000 -0.000001 -0.000003
1.000000 0.999999 1.373087 1.000000 -0.000001 -0.000003
1.000000 0.833332 1.373087 1.000000 -0.000001 -0.000003
1.000000 0.833333 1.265520 1.000000 -0.000001 -0.000003
1.000000 0.833333 1.265520 1.000000 -0.000000 0.000000
1.000000 0.833332 1.373087 1.000000 -0.000000 0.000000
1.000000 -0.833335 1.373087 1.000000 -0.000000 0.000000
1.000000 -0.833333 1.265520 1.000000 -0.000000 0.000000
-0.833333 1.000000 1.373087 0.000000 -0.000000 1.000000
-1.000000 1.000000 1.373087 0.000000 -0.000000 1.000000
-1.000000 0.833333 1.373087 0.000000 -0.000000 1.000000
-0.833333 0.833333 1.373087 0.000000 -0.000000 1.000000
-1.000000 -0.833333 1.265520 0.000001 1.000000 0.000000
-0.833333 -0.833333 1.265520 0.000001 1.000000 0.000000
-0.833333 -0.833333 0.008571 0.000001 1.000000 0.000000
-1.000000 -0.833333 0.008571 0.000001 1.000000 0.000000
-0.833333 0.833334 1.265520 0.000000 0.000000 -1.000000
-0.833333 -0.833333 1.265520 0.000000 0.000000 -1.000000
-1.000000 -0.833333 1.265520 0.000000 0.000000 -1.000000
-1.000000 0.833334 1.265520 0.000000 0.000000 -1.000000
1.000000 0.833333 1.265520 0.000000 0.000000 -1.000000
1.000000 -0.833333 1.265520 0.000000 0.000000 -1.000000
0.833333 -0.833333 1.265520 0.000000 0.000000 -1.000000
0.833333 0.833333 1.265520 0.000000 0.000000 -1.000000
1.000000 1.000000 1.265520 1.000000 0.000000 -0.000000
1.000000 0.833333 0.008571 1.000000 0.000000 -0.000000
1.000000 1.000000 0.008571 1.000000 0.000000 -0.000000
0.833334 1.000000 1.265520 0.000000 0.000000 -1.000000
-0.833333 1.000000 1.265520 0.000000 0.000000 -1.000000
1.000000 0.833332 1.373087 0.000000 -0.000000 1.000000
0.833333 0.833332 1.373087 0.000000 -0.000000 1.000000
0.833333 -0.833334 1.373087 0.000000 -0.000000 1.000000
1.000000 -0.833335 1.373087 0.000000 -0.000000 1.000000
1.000000 0.999999 1.373087 0.000000 -0.000000 1.000000
0.833334 1.000000 1.373087 0.000000 -0.000000 1.000000
1.000000 0.999999 1.373087 0.000001 1.000000 0.000004
1.000000 1.000000 1.265520 0.000001 1.000000 0.000004
0.833334 1.000000 1.265520 0.000001 1.000000 0.000004
0.833334 1.000000 1.373087 0.000001 1.000000 0.000004
0.833334 1.000000 1.373087 0.000000 1.000000 0.000003
0.833334 1.000000 1.265520 0.000000 1.000000 0.000003
-0.833333 1.000000 1.265520 0.000000 1.000000 0.000003
-0.833333 1.000000 1.373087 0.000000 1.000000 0.000003
1.000000 -1.000000 1.265520 -0.000001 -1.000000 -0.000004
0.999999 -1.000001 1.373087 -0.000001 -1.000000 -0.000004
0.833332 -1.000000 1.373087 -0.000001 -1.000000 -0.000004
0.833333 -1.000000 1.265520 -0.000001 -1.000000 -0.000004
0.833333 -1.000000 1.265520 -0.000000 -1.000000 -0.000002
0.833332 -1.000000 1.373087 -0.000000 -1.000000 -0.000002
-0.833334 -1.000000 1.373087 -0.000000 -1.000000 -0.000002
-0.833334 -1.000000 1.265520 -0.000000 -1.000000 -0.000002
0.833332 -1.000000 1.373087 0.000000 -0.000000 1.000000
0.999999 -1.000001 1.373087 0.000000 -0.000000 1.000000
-0.833333 0.833334 1.265520 -0.000002 -1.000000 0.000000
-1.000000 0.833334 1.265520 -0.000002 -1.000000 0.000000
-1.000000 0.833334 0.008571 -0.000002 -1.000000 0.000000
-0.833333 0.833334 0.008571 -0.000002 -1.000000 0.000000
0.833333 -1.000000 1.265520 0.000000 0.000000 -1.000000
-0.833334 -1.000000 1.265520 0.000000 0.000000 -1.000000
-0.833333 -0.833333 0.008571 0.000000 0.000000 -1.000000
-0.833334 -1.000000 0.008571 0.000000 0.000000 -1.000000
-1.000000 -1.000000 0.008571 0.000000 0.000000 -1.000000
-1.000000 -0.833333 0.008571 0.000000 0.000000 -1.000000
-0.833333 1.000000 0.008571 0.000000 0.000000 -1.000000
-0.833333 0.833334 0.008571 0.000000 0.000000 -1.000000
-1.000000 0.833334 0.008571 0.000000 0.000000 -1.000000
-1.000000 1.000000 0.008571 0.000000 0.000000 -1.000000
1.000000 1.000000 0.008571 0.000000 0.000000 -1.000000
1.000000 0.833333 0.008571 0.000000 0.000000 -1.000000
0.833333 0.833333 0.008571 0.000000 0.000000 -1.000000
0.833334 1.000000 0.008571 0.000000 0.000000 -1.000000
1.000000 -0.833333 0.008571 0.000000 0.000000 -1.000000
1.000000 -1.000000 0.008571 0.000000 0.000000 -1.000000
0.833333 -1.000000 0.008571 0.000000 0.000000 -1.000000
0.833333 -0.833333 0.008571 0.000000 0.000000 -1.000000
-1.000000 0.833334 1.265520 -1.000000 0.000001 0.000000
-1.000000 1.000000 1.265520 -1.000000 0.000001 0.000000
-1.000000 1.000000 0.008571 -1.000000 0.000001 0.000000
-1.000000 0.833334 0.008571 -1.000000 0.000001 0.000000
0.833334 1.000000 1.265520 0.000000 1.000000 0.000000
1.000000 1.000000 1.265520 0.000000 1.000000 0.000000
1.000000 1.000000 0.008571 0.000000 1.000000 0.000000
0.833334 1.000000 0.008571 0.000000 1.000000 0.000000
0.833333 -1.000000 1.265520 -1.000000 0.000001 0.000000
0.833333 -0.833333 1.265520 -1.000000 0.000001 0.000000
0.833333 -0.833333 0.008571 -1.000000 0.000001 0.000000
0.833333 -1.000000 0.008571 -1.000000 0.000001 0.000000
-1.000000 -1.000000 1.265520 -1.000000 0.000001 0.000000
-1.000000 -0.833333 1.265520 -1.000000 0.000001 0.000000
-1.000000 -0.833333 0.008571 -1.000000 0.000001 0.000000
-1.000000 -1.000000 0.008571 -1.000000 0.000001 0.000000
-0.833333 -0.833333 1.265520 1.000000 -0.000002 0.000000
-0.833334 -1.000000 1.265520 1.000000 -0.000002 0.000000
-0.833334 -1.000000 0.008571 1.000000 -0.000002 0.000000
-0.833333 -0.833333 0.008571 1.000000 -0.000002 0.000000
1.000000 -1.000000 1.265520 1.000000 0.000000 -0.000000
1.000000 -1.000000 0.008571 1.000000 0.000000 -0.000000
1.000000 -0.833333 0.008571 1.000000 0.000000 -0.000000
1.000000 -1.000000 1.265520 -0.000001 -1.000000 0.000000
0.833333 -1.000000 1.265520 -0.000001 -1.000000 0.000000
0.833333 -1.000000 0.008571 -0.000001 -1.000000 0.000000
1.000000 -1.000000 0.008571 -0.000001 -1.000000 0.000000
-1.000000 1.000000 1.265520 0.000001 1.000000 0.000000
-0.833333 1.000000 1.265520 0.000001 1.000000 0.000000
-0.833333 1.000000 0.008571 0.000001 1.000000 0.000000
-1.000000 1.000000 0.008571 0.000001 1.000000 0.000000
0.833333 0.833333 1.265520 -1.000000 0.000002 0.000000
0.833334 1.000000 1.265520 -1.000000 0.000002 0.000000
0.833334 1.000000 0.008571 -1.000000 0.000002 0.000000
0.833333 0.833333 0.008571 -1.000000 0.000002 0.000000
-0.833333 1.000000 1.265520 1.000000 -0.000002 0.000000
-0.833333 0.833334 1.265520 1.000000 -0.000002 0.000000
-0.833333 0.833334 0.008571 1.000000 -0.000002 0.000000
-0.833333 1.000000 0.008571 1.000000 -0.000002 0.000000
-0.833334 -1.000000 1.265520 -0.000000 -1.000000 0.000000
-1.000000 -1.000000 1.265520 -0.000000 -1.000000 0.000000
-1.000000 -1.000000 0.008571 -0.000000 -1.000000 0.000000
-0.833334 -1.000000 0.008571 -0.000000 -1.000000 0.000000
1.000000 0.833333 1.265520 -0.000002 -1.000000 0.000000
0.833333 0.833333 1.265520 -0.000002 -1.000000 0.000000
0.833333 0.833333 0.008571 -0.000002 -1.000000 0.000000
1.000000 0.833333 0.008571 -0.000002 -1.000000 0.000000
4 0 1 2 3
4 4 5 6 7
4 8 9 10 11
4 12 13 14 15
4 16 17 18 19
4 20 21 22 23
4 24 25 26 27
4 28 29 30 31
4 32 33 34 35
4 36 37 38 39
4 40 41 42 43
4 43 42 5 4
4 44 45 46 47
4 48 49 50 51
4 52 53 54 55
4 55 54 49 48
4 56 36 57 58
4 59 55 48 60
4 61 62 63 64
4 62 43 4 63
4 65 66 62 61
4 66 40 43 62
4 67 68 69 70
4 71 72 73 74
4 75 76 77 78
4 79 80 81 82
4 64 63 83 84
4 63 4 7 83
4 85 86 87 88
4 54 89 90 49
4 91 92 93 94
4 95 96 97 98
4 99 100 101 102
4 103 104 105 106
4 107 108 109 110
4 111 112 113 114
4 115 116 117 118
4 119 120 121 122
4 123 124 125 126
4 39 127 128 129
4 130 131 132 133
4 134 135 136 137
4 138 139 140 141
4 142 143 144 145
4 146 147 148 149
4 150 151 152 153
